<svg width="16" height="16" viewBox="0 0 16 16" fill="none" xmlns="http://www.w3.org/2000/svg">
<path d="M2 7.33333L6 7.33333L6 8.66667L4.66667 8.66667L4.66667 14L3.33333 14L3.33333 8.66667L2 8.66667L2 7.33333ZM3.33333 2L4.66667 2L4.66667 6L3.33333 6L3.33333 2ZM6 4.66667L7.33333 4.66667L7.33333 2L8.66667 2L8.66667 4.66667L10 4.66667L10 6L6 6L6 4.66667ZM7.33333 7.33333L8.66667 7.33333L8.66667 14L7.33333 14L7.33333 7.33333ZM10 10L14 10L14 11.3333L12.6667 11.3333L12.6667 14L11.3333 14L11.3333 11.3333L10 11.3333L10 10ZM11.3333 2L12.6667 2L12.6667 8.66667L11.3333 8.66667L11.3333 2Z" fill="#949494"/>
</svg>
