<svg width="198" height="191" viewBox="0 0 198 191" fill="none" xmlns="http://www.w3.org/2000/svg">
<path fill-rule="evenodd" clip-rule="evenodd" d="M76.9646 146.05C67.914 149.543 60.8748 148.961 60.8748 148.961C60.8748 148.961 61.3776 153.036 66.4056 158.275C71.4337 163.514 76.4618 163.514 76.4618 163.514C76.4618 163.514 87.5235 153.618 98.5852 155.946C104.527 157.197 108.728 161.304 112.435 164.927C115.629 168.049 118.456 170.812 121.714 171.082C128.754 171.664 136.612 166.122 141.112 157.122C145.227 148.892 145.357 144.995 145.733 133.706C145.769 132.649 145.806 131.528 145.849 130.332C146.352 116.361 139.313 111.122 139.313 111.122C139.313 111.122 136.296 129.168 134.787 134.989C133.279 140.811 128.251 148.961 117.189 148.961C106.127 148.961 92.5516 136.154 92.5516 136.154C92.5516 136.154 86.0151 142.557 76.9646 146.05ZM94.8748 190.122C103.159 190.122 109.875 183.63 109.875 175.622C109.875 167.614 103.159 161.122 94.8748 161.122C86.5905 161.122 79.8748 167.614 79.8748 175.622C79.8748 183.63 86.5905 190.122 94.8748 190.122Z" fill="#DE8022"/>
<path fill-rule="evenodd" clip-rule="evenodd" d="M37.5924 83.177C31.6066 75.5427 30.1058 68.6407 30.1058 68.6407C30.1058 68.6407 26.3557 70.3126 22.815 76.6525C19.2743 82.9924 20.744 87.8009 20.744 87.8009C20.744 87.8009 33.4415 95.4868 34.448 106.746C34.9886 112.794 32.2895 118.012 29.9079 122.616C27.8558 126.583 26.0394 130.095 26.734 133.289C28.2349 140.191 35.8321 146.086 45.7544 147.759C55.2178 149.355 64.3715 146.901 71.8056 144.908C72.1661 144.811 72.5225 144.716 72.8747 144.622C80.491 142.59 89.2194 132.593 89.2194 132.593C89.2194 132.593 71.0795 134.982 65.0715 135.241C59.0634 135.5 49.7998 133.074 46.5664 122.496C43.3331 111.917 51.6126 95.1906 51.6126 95.1906C51.6126 95.1906 43.5781 90.8113 37.5924 83.177ZM0.680552 113.187C3.10204 121.11 11.2734 125.634 18.9318 123.294C26.5902 120.953 30.8355 112.633 28.414 104.71C25.9925 96.788 17.8212 92.2631 10.1628 94.6039C2.50441 96.9447 -1.74094 105.265 0.680552 113.187Z" fill="#92B635"/>
<path fill-rule="evenodd" clip-rule="evenodd" d="M46.8779 2.9626C40.1855 7.84524 38.5864 17.0479 43.3062 23.5172C48.0261 29.9866 57.2777 31.2729 63.9701 26.3903C70.6626 21.5077 72.2617 12.305 67.5418 5.83566C62.8219 -0.633722 53.5704 -1.92003 46.8779 2.9626ZM87.322 28.01C92.5749 19.854 98.6047 16.1755 98.6047 16.1755C98.6047 16.1755 95.7967 13.1799 88.6469 11.9108C81.497 10.6418 77.4351 13.6052 77.4351 13.6052C77.4351 13.6052 74.3316 28.1196 64.0229 32.7581C58.4855 35.2498 52.6715 34.4085 47.5413 33.6661C43.1209 33.0264 39.2082 32.4603 36.4174 34.1628C30.3876 37.8414 27.3057 46.9503 28.9749 56.8732C30.644 66.7961 34.5 72.9924 40.9374 81.3071C47.3748 89.6218 57.5403 92.9738 57.5403 92.9738C57.5403 92.9738 49.3412 76.6171 47.1288 71.0252C44.9163 65.4334 44.1748 55.886 53.111 49.3664C62.0473 42.8467 80.5628 45.1915 80.5628 45.1915C80.5628 45.1915 82.0691 36.1659 87.322 28.01Z" fill="#2BA7E7"/>
<path fill-rule="evenodd" clip-rule="evenodd" d="M166.09 7.54705C159.192 2.9592 150.005 4.64545 145.57 11.3134C141.135 17.9814 143.132 27.106 150.03 31.6938C156.928 36.2817 166.115 34.5954 170.55 27.9275C174.985 21.2595 172.988 12.1349 166.09 7.54705ZM156.596 54.162C166.066 56.2659 171.605 60.649 171.605 60.649C171.605 60.649 173.443 56.9776 172.158 49.8306C170.873 42.6836 166.686 39.899 166.686 39.899C166.686 39.899 151.995 42.0132 144.074 33.9483C139.819 29.6161 138.596 23.8705 137.516 18.8005C136.585 14.4321 135.762 10.5654 133.198 8.53672C127.659 4.15363 118.047 4.4164 109.315 9.41812C100.584 14.4198 94.7541 22.58 90.535 29.1009C86.3158 35.6218 85.3387 48.7164 85.3387 48.7164C85.3387 48.7164 97.8448 35.361 102.325 31.3492C106.805 27.3374 115.505 23.336 124.715 29.462C133.926 35.588 138.137 53.7701 138.137 53.7701C138.137 53.7701 147.126 52.0581 156.596 54.162Z" fill="#2F3590"/>
<path fill-rule="evenodd" clip-rule="evenodd" d="M149.115 128.584C149.529 138.277 146.725 144.76 146.725 144.76C146.725 144.76 150.747 145.587 157.32 142.499C163.892 139.411 165.5 134.647 165.5 134.647C165.5 134.647 159.662 121.001 165.407 111.265C168.493 106.036 173.727 103.369 178.346 101.016C182.326 98.9884 185.849 97.1938 187.146 94.1931C189.949 87.7099 187.212 78.4917 180.125 71.3491C173.037 64.2066 165.875 60.6218 156.875 58.1218C147.875 55.6218 135.966 58.3392 135.966 58.3392C135.966 58.3392 152.099 66.9703 157.132 70.2616C162.165 73.5529 168.278 80.9239 164.74 91.4044C161.201 101.885 144.724 110.651 144.724 110.651C144.724 110.651 148.7 118.892 149.115 128.584ZM196.6 125.713C199.25 117.864 195.247 109.425 187.66 106.863C180.073 104.301 171.774 108.587 169.124 116.436C166.474 124.285 170.476 132.725 178.063 135.287C185.651 137.848 193.95 133.562 196.6 125.713Z" fill="#D90D7B"/>
<path d="M71.632 94L71.884 93.16H72.024C72.22 93.132 72.752 93.132 73.256 92.852C73.956 92.46 74.012 91.928 74.208 90.64L74.544 88.092H69.616L68.328 89.884C67.656 90.92 67.18 91.508 67.18 92.124C67.18 92.908 67.936 93.076 68.524 93.16H68.748L68.468 94C66.2 93.944 63.876 93.916 61.608 94L61.86 93.16L62.056 93.104C63.596 92.712 63.988 92.18 65.612 90.136L75.916 76.612C76.168 76.248 76.448 75.856 76.756 75.492C77.064 75.072 77.4 74.652 77.68 74.232H81.04L79.864 90.08C79.836 90.5 79.836 90.892 79.808 91.284C79.808 91.452 79.78 91.62 79.78 91.788C79.808 92.712 80.284 93.076 81.152 93.16H81.348L81.068 94C79.052 93.944 76.98 93.944 74.936 93.944C73.844 93.944 72.752 93.972 71.632 94ZM74.796 86.272L75.356 81.708C75.412 81.26 75.524 80.336 75.888 79.216L70.932 86.272H74.796ZM91.4562 94L91.7082 93.16H91.8482C92.0442 93.132 92.5762 93.132 93.0802 92.852C93.7802 92.46 93.8362 91.928 94.0322 90.64L94.3682 88.092H89.4402L88.1522 89.884C87.4802 90.92 87.0042 91.508 87.0042 92.124C87.0042 92.908 87.7602 93.076 88.3482 93.16H88.5722L88.2922 94C86.0242 93.944 83.7002 93.916 81.4322 94L81.6842 93.16L81.8802 93.104C83.4202 92.712 83.8122 92.18 85.4362 90.136L95.7402 76.612C95.9922 76.248 96.2722 75.856 96.5802 75.492C96.8882 75.072 97.2242 74.652 97.5042 74.232H100.864L99.6882 90.08C99.6602 90.5 99.6602 90.892 99.6322 91.284C99.6322 91.452 99.6042 91.62 99.6042 91.788C99.6322 92.712 100.108 93.076 100.976 93.16H101.172L100.892 94C98.8762 93.944 96.8042 93.944 94.7602 93.944C93.6682 93.944 92.5762 93.972 91.4562 94ZM94.6202 86.272L95.1802 81.708C95.2362 81.26 95.3482 80.336 95.7122 79.216L90.7562 86.272H94.6202ZM112.386 85.096L110.902 90.22C110.65 91.116 110.51 91.62 110.51 92.068C110.51 92.208 110.51 92.404 110.65 92.628C110.902 93.048 111.63 93.104 112.078 93.132L112.974 93.188L112.722 94C109.194 93.944 105.638 93.916 102.026 94L102.278 93.188L102.754 93.16C103.118 93.132 103.202 93.132 103.426 93.048C104.602 92.74 104.854 91.732 105.134 90.696L108.774 78.012C109.026 77.116 109.194 76.556 109.194 76.136C109.194 75.212 108.27 75.156 107.598 75.072L107.15 75.044L107.402 74.232H114.85C115.998 74.232 117.146 74.204 118.266 74.316C118.882 74.372 120.954 74.512 122.354 76.108C122.802 76.64 123.418 77.508 123.418 79.104C123.39 79.832 123.306 81.4 122.046 82.828C121.038 83.948 118.966 85.432 115.354 85.432C114.57 85.432 113.87 85.376 112.386 85.096ZM115.046 75.744L112.806 83.612C114.178 83.724 115.438 83.64 116.418 82.52C117.286 81.54 117.846 79.58 117.846 78.292C117.846 77.256 117.51 76.276 116.446 75.912C116.11 75.8 115.746 75.744 115.046 75.744ZM131.384 94H129.9C129.9 93.02 129.76 92.04 129.648 91.088L128.556 80.392L126.484 87.476C126.204 88.428 125.532 90.668 125.532 91.676C125.532 93.076 126.652 93.048 127.044 93.104H127.38L127.1 94C125.672 93.944 124.244 93.944 122.816 93.944C121.892 93.944 120.94 93.972 120.016 94L120.268 93.104H120.436C121.416 92.992 122.088 92.796 122.844 91.116C123.376 89.968 123.88 88.372 124.692 85.712L127.492 75.912C127.016 75.324 126.568 75.128 125.196 75.072H125L125.252 74.232C126.344 74.288 127.436 74.316 128.556 74.316C130.096 74.316 131.636 74.288 133.176 74.232L134.352 86.384L142.752 74.232C143.872 74.288 145.02 74.316 146.196 74.316C147.512 74.316 148.828 74.26 150.172 74.232L149.948 75.044H149.696C149.472 75.072 149.248 75.1 149.052 75.156C147.848 75.464 147.596 76.5 147.288 77.508L143.648 90.22C143.424 91.06 143.256 91.704 143.256 92.068C143.256 93.02 144.124 93.048 144.824 93.16L145.104 93.188L144.852 94C143.06 93.944 141.296 93.916 139.476 93.916C138.216 93.916 136.956 93.944 135.696 93.972C135.528 94 135.36 94 135.192 94L135.444 93.188L135.584 93.16C135.724 93.16 135.92 93.16 136.228 93.048C137.432 92.712 137.628 91.704 137.936 90.696L141.072 80.028L134.184 89.884C133.68 90.612 133.176 91.312 132.672 92.04C132.252 92.684 131.832 93.356 131.384 94Z" fill="black"/>
<path d="M54.2891 101.137L55.4141 101.027C55.4818 101.405 55.6185 101.682 55.8242 101.859C56.0326 102.036 56.3125 102.125 56.6641 102.125C57.0365 102.125 57.3164 102.047 57.5039 101.891C57.694 101.732 57.7891 101.547 57.7891 101.336C57.7891 101.201 57.7487 101.086 57.668 100.992C57.5898 100.896 57.4518 100.812 57.2539 100.742C57.1185 100.695 56.8099 100.612 56.3281 100.492C55.7083 100.339 55.2734 100.15 55.0234 99.9258C54.6719 99.6107 54.4961 99.2266 54.4961 98.7734C54.4961 98.4818 54.5781 98.2096 54.7422 97.957C54.9089 97.7018 55.1471 97.5078 55.457 97.375C55.7695 97.2422 56.1458 97.1758 56.5859 97.1758C57.3047 97.1758 57.8451 97.3333 58.207 97.6484C58.5716 97.9635 58.763 98.3841 58.7812 98.9102L57.625 98.9609C57.5755 98.6667 57.4688 98.4557 57.3047 98.3281C57.1432 98.1979 56.8997 98.1328 56.5742 98.1328C56.2383 98.1328 55.9753 98.2018 55.7852 98.3398C55.6628 98.4284 55.6016 98.5469 55.6016 98.6953C55.6016 98.8307 55.6589 98.9466 55.7734 99.043C55.9193 99.1654 56.2734 99.293 56.8359 99.4258C57.3984 99.5586 57.8138 99.6966 58.082 99.8398C58.3529 99.9805 58.5638 100.174 58.7148 100.422C58.8685 100.667 58.9453 100.97 58.9453 101.332C58.9453 101.66 58.8542 101.967 58.6719 102.254C58.4896 102.54 58.2318 102.754 57.8984 102.895C57.5651 103.033 57.1497 103.102 56.6523 103.102C55.9284 103.102 55.3724 102.935 54.9844 102.602C54.5964 102.266 54.3646 101.777 54.2891 101.137ZM65.082 103H63.8242L63.3242 101.699H61.0352L60.5625 103H59.3359L61.5664 97.2734H62.7891L65.082 103ZM62.9531 100.734L62.1641 98.6094L61.3906 100.734H62.9531ZM61.2695 96.957H60.7695C60.7669 96.8971 60.7656 96.8503 60.7656 96.8164C60.7656 96.543 60.832 96.3333 60.9648 96.1875C61.0977 96.0391 61.2682 95.9648 61.4766 95.9648C61.5677 95.9648 61.6523 95.9753 61.7305 95.9961C61.8086 96.0143 61.9505 96.0703 62.1562 96.1641C62.3646 96.2552 62.5273 96.3008 62.6445 96.3008C62.7279 96.3008 62.7969 96.2747 62.8516 96.2227C62.9089 96.1706 62.9453 96.0833 62.9609 95.9609H63.4688C63.4661 96.3125 63.3997 96.5638 63.2695 96.7148C63.1419 96.8659 62.9766 96.9414 62.7734 96.9414C62.6849 96.9414 62.5977 96.9323 62.5117 96.9141C62.4518 96.8984 62.3021 96.8451 62.0625 96.7539C61.8229 96.6628 61.6484 96.6172 61.5391 96.6172C61.4557 96.6172 61.3906 96.6432 61.3438 96.6953C61.2969 96.7448 61.2721 96.832 61.2695 96.957ZM65.4648 100.172C65.4648 99.5885 65.5521 99.099 65.7266 98.7031C65.8568 98.4115 66.0339 98.1497 66.2578 97.918C66.4844 97.6862 66.7318 97.5143 67 97.4023C67.3568 97.2513 67.7682 97.1758 68.2344 97.1758C69.0781 97.1758 69.7526 97.4375 70.2578 97.9609C70.7656 98.4844 71.0195 99.2122 71.0195 100.145C71.0195 101.069 70.7682 101.793 70.2656 102.316C69.763 102.837 69.0911 103.098 68.25 103.098C67.3984 103.098 66.7214 102.839 66.2188 102.32C65.7161 101.799 65.4648 101.083 65.4648 100.172ZM66.6562 100.133C66.6562 100.781 66.806 101.273 67.1055 101.609C67.4049 101.943 67.7852 102.109 68.2461 102.109C68.707 102.109 69.0846 101.944 69.3789 101.613C69.6758 101.28 69.8242 100.781 69.8242 100.117C69.8242 99.4609 69.6797 98.9714 69.3906 98.6484C69.1042 98.3255 68.7227 98.1641 68.2461 98.1641C67.7695 98.1641 67.3854 98.3281 67.0938 98.6562C66.8021 98.9818 66.6562 99.474 66.6562 100.133ZM76.2188 97.2734H77.3711V100.898C77.3711 101.372 77.3294 101.737 77.2461 101.992C77.1341 102.326 76.931 102.594 76.6367 102.797C76.3424 102.997 75.9544 103.098 75.4727 103.098C74.9076 103.098 74.4727 102.94 74.168 102.625C73.8633 102.307 73.7096 101.842 73.707 101.23L74.7969 101.105C74.8099 101.434 74.8581 101.665 74.9414 101.801C75.0664 102.007 75.2565 102.109 75.5117 102.109C75.7695 102.109 75.9518 102.036 76.0586 101.891C76.1654 101.742 76.2188 101.436 76.2188 100.973V97.2734ZM78.3711 100.172C78.3711 99.5885 78.4583 99.099 78.6328 98.7031C78.763 98.4115 78.9401 98.1497 79.1641 97.918C79.3906 97.6862 79.638 97.5143 79.9062 97.4023C80.263 97.2513 80.6745 97.1758 81.1406 97.1758C81.9844 97.1758 82.6589 97.4375 83.1641 97.9609C83.6719 98.4844 83.9258 99.2122 83.9258 100.145C83.9258 101.069 83.6745 101.793 83.1719 102.316C82.6693 102.837 81.9974 103.098 81.1562 103.098C80.3047 103.098 79.6276 102.839 79.125 102.32C78.6224 101.799 78.3711 101.083 78.3711 100.172ZM79.5625 100.133C79.5625 100.781 79.7122 101.273 80.0117 101.609C80.3112 101.943 80.6914 102.109 81.1523 102.109C81.6133 102.109 81.9909 101.944 82.2852 101.613C82.582 101.28 82.7305 100.781 82.7305 100.117C82.7305 99.4609 82.5859 98.9714 82.2969 98.6484C82.0104 98.3255 81.6289 98.1641 81.1523 98.1641C80.6758 98.1641 80.2917 98.3281 80 98.6562C79.7083 98.9818 79.5625 99.474 79.5625 100.133ZM84.5391 101.137L85.6641 101.027C85.7318 101.405 85.8685 101.682 86.0742 101.859C86.2826 102.036 86.5625 102.125 86.9141 102.125C87.2865 102.125 87.5664 102.047 87.7539 101.891C87.944 101.732 88.0391 101.547 88.0391 101.336C88.0391 101.201 87.9987 101.086 87.918 100.992C87.8398 100.896 87.7018 100.812 87.5039 100.742C87.3685 100.695 87.0599 100.612 86.5781 100.492C85.9583 100.339 85.5234 100.15 85.2734 99.9258C84.9219 99.6107 84.7461 99.2266 84.7461 98.7734C84.7461 98.4818 84.8281 98.2096 84.9922 97.957C85.1589 97.7018 85.3971 97.5078 85.707 97.375C86.0195 97.2422 86.3958 97.1758 86.8359 97.1758C87.5547 97.1758 88.0951 97.3333 88.457 97.6484C88.8216 97.9635 89.013 98.3841 89.0312 98.9102L87.875 98.9609C87.8255 98.6667 87.7188 98.4557 87.5547 98.3281C87.3932 98.1979 87.1497 98.1328 86.8242 98.1328C86.4883 98.1328 86.2253 98.2018 86.0352 98.3398C85.9128 98.4284 85.8516 98.5469 85.8516 98.6953C85.8516 98.8307 85.9089 98.9466 86.0234 99.043C86.1693 99.1654 86.5234 99.293 87.0859 99.4258C87.6484 99.5586 88.0638 99.6966 88.332 99.8398C88.6029 99.9805 88.8138 100.174 88.9648 100.422C89.1185 100.667 89.1953 100.97 89.1953 101.332C89.1953 101.66 89.1042 101.967 88.9219 102.254C88.7396 102.54 88.4818 102.754 88.1484 102.895C87.8151 103.033 87.3997 103.102 86.9023 103.102C86.1784 103.102 85.6224 102.935 85.2344 102.602C84.8464 102.266 84.6146 101.777 84.5391 101.137ZM90.168 103V97.2734H94.4141V98.2422H91.3242V99.5117H94.1992V100.477H91.3242V102.035H94.5234V103H90.168ZM91.6367 96.9453L92.1758 95.7773H93.4062L92.332 96.9453H91.6367ZM97.7266 97.2734H99.8398C100.316 97.2734 100.68 97.3099 100.93 97.3828C101.266 97.4818 101.553 97.6576 101.793 97.9102C102.033 98.1628 102.215 98.4727 102.34 98.8398C102.465 99.2044 102.527 99.6549 102.527 100.191C102.527 100.663 102.469 101.069 102.352 101.41C102.208 101.827 102.004 102.164 101.738 102.422C101.538 102.617 101.267 102.77 100.926 102.879C100.671 102.96 100.329 103 99.9023 103H97.7266V97.2734ZM98.8828 98.2422V102.035H99.7461C100.069 102.035 100.302 102.017 100.445 101.98C100.633 101.934 100.788 101.854 100.91 101.742C101.035 101.63 101.137 101.447 101.215 101.191C101.293 100.934 101.332 100.583 101.332 100.141C101.332 99.6979 101.293 99.3581 101.215 99.1211C101.137 98.8841 101.027 98.6992 100.887 98.5664C100.746 98.4336 100.568 98.3438 100.352 98.2969C100.19 98.2604 99.8737 98.2422 99.4023 98.2422H98.8828ZM103.277 100.172C103.277 99.5885 103.365 99.099 103.539 98.7031C103.669 98.4115 103.846 98.1497 104.07 97.918C104.297 97.6862 104.544 97.5143 104.812 97.4023C105.169 97.2513 105.581 97.1758 106.047 97.1758C106.891 97.1758 107.565 97.4375 108.07 97.9609C108.578 98.4844 108.832 99.2122 108.832 100.145C108.832 101.069 108.581 101.793 108.078 102.316C107.576 102.837 106.904 103.098 106.062 103.098C105.211 103.098 104.534 102.839 104.031 102.32C103.529 101.799 103.277 101.083 103.277 100.172ZM104.469 100.133C104.469 100.781 104.618 101.273 104.918 101.609C105.217 101.943 105.598 102.109 106.059 102.109C106.52 102.109 106.897 101.944 107.191 101.613C107.488 101.28 107.637 100.781 107.637 100.117C107.637 99.4609 107.492 98.9714 107.203 98.6484C106.917 98.3255 106.535 98.1641 106.059 98.1641C105.582 98.1641 105.198 98.3281 104.906 98.6562C104.615 98.9818 104.469 99.474 104.469 100.133ZM109.445 101.137L110.57 101.027C110.638 101.405 110.775 101.682 110.98 101.859C111.189 102.036 111.469 102.125 111.82 102.125C112.193 102.125 112.473 102.047 112.66 101.891C112.85 101.732 112.945 101.547 112.945 101.336C112.945 101.201 112.905 101.086 112.824 100.992C112.746 100.896 112.608 100.812 112.41 100.742C112.275 100.695 111.966 100.612 111.484 100.492C110.865 100.339 110.43 100.15 110.18 99.9258C109.828 99.6107 109.652 99.2266 109.652 98.7734C109.652 98.4818 109.734 98.2096 109.898 97.957C110.065 97.7018 110.303 97.5078 110.613 97.375C110.926 97.2422 111.302 97.1758 111.742 97.1758C112.461 97.1758 113.001 97.3333 113.363 97.6484C113.728 97.9635 113.919 98.3841 113.938 98.9102L112.781 98.9609C112.732 98.6667 112.625 98.4557 112.461 98.3281C112.299 98.1979 112.056 98.1328 111.73 98.1328C111.395 98.1328 111.132 98.2018 110.941 98.3398C110.819 98.4284 110.758 98.5469 110.758 98.6953C110.758 98.8307 110.815 98.9466 110.93 99.043C111.076 99.1654 111.43 99.293 111.992 99.4258C112.555 99.5586 112.97 99.6966 113.238 99.8398C113.509 99.9805 113.72 100.174 113.871 100.422C114.025 100.667 114.102 100.97 114.102 101.332C114.102 101.66 114.01 101.967 113.828 102.254C113.646 102.54 113.388 102.754 113.055 102.895C112.721 103.033 112.306 103.102 111.809 103.102C111.085 103.102 110.529 102.935 110.141 102.602C109.753 102.266 109.521 101.777 109.445 101.137ZM120.965 100.895L122.086 101.25C121.914 101.875 121.628 102.34 121.227 102.645C120.828 102.947 120.322 103.098 119.707 103.098C118.947 103.098 118.322 102.839 117.832 102.32C117.342 101.799 117.098 101.089 117.098 100.188C117.098 99.2344 117.344 98.4948 117.836 97.9688C118.328 97.4401 118.975 97.1758 119.777 97.1758C120.478 97.1758 121.047 97.3828 121.484 97.7969C121.745 98.0417 121.94 98.3932 122.07 98.8516L120.926 99.125C120.858 98.8281 120.716 98.5938 120.5 98.4219C120.286 98.25 120.026 98.1641 119.719 98.1641C119.294 98.1641 118.949 98.3164 118.684 98.6211C118.421 98.9258 118.289 99.4193 118.289 100.102C118.289 100.826 118.419 101.341 118.68 101.648C118.94 101.956 119.279 102.109 119.695 102.109C120.003 102.109 120.267 102.012 120.488 101.816C120.71 101.621 120.868 101.314 120.965 100.895ZM128.246 103H126.988L126.488 101.699H124.199L123.727 103H122.5L124.73 97.2734H125.953L128.246 103ZM126.117 100.734L125.328 98.6094L124.555 100.734H126.117ZM128.848 103V97.2734H130.578L131.617 101.18L132.645 97.2734H134.379V103H133.305V98.4922L132.168 103H131.055L129.922 98.4922V103H128.848ZM135.527 103V97.2734H137.383C138.086 97.2734 138.544 97.3021 138.758 97.3594C139.086 97.4453 139.361 97.6328 139.582 97.9219C139.803 98.2083 139.914 98.5794 139.914 99.0352C139.914 99.3867 139.85 99.6823 139.723 99.9219C139.595 100.161 139.432 100.35 139.234 100.488C139.039 100.624 138.84 100.714 138.637 100.758C138.361 100.812 137.961 100.84 137.438 100.84H136.684V103H135.527ZM136.684 98.2422V99.8672H137.316C137.772 99.8672 138.077 99.8372 138.23 99.7773C138.384 99.7174 138.504 99.6237 138.59 99.4961C138.678 99.3685 138.723 99.2201 138.723 99.0508C138.723 98.8424 138.661 98.6706 138.539 98.5352C138.417 98.3997 138.262 98.3151 138.074 98.2812C137.936 98.2552 137.659 98.2422 137.242 98.2422H136.684ZM140.629 100.172C140.629 99.5885 140.716 99.099 140.891 98.7031C141.021 98.4115 141.198 98.1497 141.422 97.918C141.648 97.6862 141.896 97.5143 142.164 97.4023C142.521 97.2513 142.932 97.1758 143.398 97.1758C144.242 97.1758 144.917 97.4375 145.422 97.9609C145.93 98.4844 146.184 99.2122 146.184 100.145C146.184 101.069 145.932 101.793 145.43 102.316C144.927 102.837 144.255 103.098 143.414 103.098C142.562 103.098 141.885 102.839 141.383 102.32C140.88 101.799 140.629 101.083 140.629 100.172ZM141.82 100.133C141.82 100.781 141.97 101.273 142.27 101.609C142.569 101.943 142.949 102.109 143.41 102.109C143.871 102.109 144.249 101.944 144.543 101.613C144.84 101.28 144.988 100.781 144.988 100.117C144.988 99.4609 144.844 98.9714 144.555 98.6484C144.268 98.3255 143.887 98.1641 143.41 98.1641C142.934 98.1641 142.549 98.3281 142.258 98.6562C141.966 98.9818 141.82 99.474 141.82 100.133ZM146.797 101.137L147.922 101.027C147.99 101.405 148.126 101.682 148.332 101.859C148.54 102.036 148.82 102.125 149.172 102.125C149.544 102.125 149.824 102.047 150.012 101.891C150.202 101.732 150.297 101.547 150.297 101.336C150.297 101.201 150.257 101.086 150.176 100.992C150.098 100.896 149.96 100.812 149.762 100.742C149.626 100.695 149.318 100.612 148.836 100.492C148.216 100.339 147.781 100.15 147.531 99.9258C147.18 99.6107 147.004 99.2266 147.004 98.7734C147.004 98.4818 147.086 98.2096 147.25 97.957C147.417 97.7018 147.655 97.5078 147.965 97.375C148.277 97.2422 148.654 97.1758 149.094 97.1758C149.812 97.1758 150.353 97.3333 150.715 97.6484C151.079 97.9635 151.271 98.3841 151.289 98.9102L150.133 98.9609C150.083 98.6667 149.977 98.4557 149.812 98.3281C149.651 98.1979 149.408 98.1328 149.082 98.1328C148.746 98.1328 148.483 98.2018 148.293 98.3398C148.171 98.4284 148.109 98.5469 148.109 98.6953C148.109 98.8307 148.167 98.9466 148.281 99.043C148.427 99.1654 148.781 99.293 149.344 99.4258C149.906 99.5586 150.322 99.6966 150.59 99.8398C150.861 99.9805 151.072 100.174 151.223 100.422C151.376 100.667 151.453 100.97 151.453 101.332C151.453 101.66 151.362 101.967 151.18 102.254C150.997 102.54 150.74 102.754 150.406 102.895C150.073 103.033 149.658 103.102 149.16 103.102C148.436 103.102 147.88 102.935 147.492 102.602C147.104 102.266 146.872 101.777 146.797 101.137Z" fill="black"/>
</svg>
