<svg width="17" height="17" viewBox="0 0 17 17" fill="none" xmlns="http://www.w3.org/2000/svg">
<path d="M7.79183 6.37498V4.24998H5.66683V2.83331H7.79183V0.708313H9.2085V2.83331H11.3335V4.24998H9.2085V6.37498H7.79183ZM4.9585 15.5833C4.56891 15.5833 4.23541 15.4446 3.95798 15.1672C3.68055 14.8897 3.54183 14.5562 3.54183 14.1666C3.54183 13.7771 3.68055 13.4436 3.95798 13.1661C4.23541 12.8887 4.56891 12.75 4.9585 12.75C5.34808 12.75 5.68159 12.8887 5.95902 13.1661C6.23645 13.4436 6.37516 13.7771 6.37516 14.1666C6.37516 14.5562 6.23645 14.8897 5.95902 15.1672C5.68159 15.4446 5.34808 15.5833 4.9585 15.5833ZM12.0418 15.5833C11.6522 15.5833 11.3187 15.4446 11.0413 15.1672C10.7639 14.8897 10.6252 14.5562 10.6252 14.1666C10.6252 13.7771 10.7639 13.4436 11.0413 13.1661C11.3187 12.8887 11.6522 12.75 12.0418 12.75C12.4314 12.75 12.7649 12.8887 13.0424 13.1661C13.3198 13.4436 13.4585 13.7771 13.4585 14.1666C13.4585 14.5562 13.3198 14.8897 13.0424 15.1672C12.7649 15.4446 12.4314 15.5833 12.0418 15.5833ZM0.708496 2.83331V1.41665H3.02829L6.0387 7.79165H10.997L13.7595 2.83331H15.371L12.2543 8.46456C12.1245 8.70067 11.9503 8.88366 11.7319 9.01352C11.5135 9.14338 11.2745 9.20831 11.0147 9.20831H5.73766L4.9585 10.625H13.4585V12.0416H4.9585C4.42725 12.0416 4.02291 11.8114 3.74548 11.351C3.46804 10.8906 3.45919 10.4243 3.71891 9.95206L4.67516 8.21665L2.12516 2.83331H0.708496Z" fill="white"/>
</svg>
